<?xml version="1.0" encoding="UTF-8" standalone="no"?>
<svg
   id="svg"
   version="1.1"
   width="400"
   height="400"
   viewBox="0, 0, 400,400"
   sodipodi:docname="favicon.svg"
   inkscape:version="1.2.1 (9c6d41e410, 2022-07-14)"
   xmlns:inkscape="http://www.inkscape.org/namespaces/inkscape"
   xmlns:sodipodi="http://sodipodi.sourceforge.net/DTD/sodipodi-0.dtd"
   xmlns="http://www.w3.org/2000/svg"
   xmlns:svg="http://www.w3.org/2000/svg">
  <defs
     id="defs728" />
  <sodipodi:namedview
     id="namedview726"
     pagecolor="#ffffff"
     bordercolor="#000000"
     borderopacity="0.25"
     inkscape:showpageshadow="2"
     inkscape:pageopacity="0.0"
     inkscape:pagecheckerboard="0"
     inkscape:deskcolor="#d1d1d1"
     showgrid="false"
     inkscape:zoom="23.023397"
     inkscape:cx="400.80967"
     inkscape:cy="392.86123"
     inkscape:window-width="1920"
     inkscape:window-height="1001"
     inkscape:window-x="-9"
     inkscape:window-y="-9"
     inkscape:window-maximized="1"
     inkscape:current-layer="svg" />
  <g
     id="svgg">
    <path
       id="path0"
       d="M365.800 0.400 C 365.360 0.589,365.148 0.756,365.329 0.772 C 365.818 0.814,364.533 2.000,363.998 2.000 C 363.722 2.000,363.566 2.598,363.608 3.500 C 363.646 4.325,363.660 9.815,363.639 15.700 L 363.600 26.400 337.976 26.400 C 322.395 26.400,312.442 26.545,312.581 26.770 C 312.707 26.973,312.493 27.222,312.105 27.323 C 311.717 27.424,313.335 27.528,315.700 27.554 C 318.065 27.579,320.000 27.692,320.000 27.804 C 320.000 28.296,310.808 37.144,310.046 37.385 C 309.581 37.533,309.200 37.912,309.200 38.227 C 309.200 38.542,309.020 38.800,308.800 38.800 C 308.580 38.800,308.400 39.120,308.400 39.512 C 308.400 39.903,308.014 40.488,307.542 40.812 C 305.169 42.439,298.852 49.179,298.691 50.255 C 298.597 50.885,298.493 49.231,298.460 46.580 C 298.427 43.929,298.233 41.589,298.029 41.380 C 297.824 41.171,297.583 40.370,297.493 39.600 C 297.402 38.830,297.299 41.215,297.264 44.900 L 297.200 51.600 292.443 51.600 C 288.583 51.600,287.642 51.713,287.455 52.200 C 287.261 52.707,287.810 52.800,291.013 52.800 C 295.400 52.800,295.301 52.696,293.100 55.002 C 290.148 58.095,289.670 58.567,288.035 60.000 C 286.172 61.632,286.085 61.884,287.300 62.118 C 287.865 62.227,287.650 62.311,286.720 62.346 C 285.828 62.378,285.098 62.653,284.884 63.036 C 284.688 63.386,284.364 63.651,284.164 63.626 C 283.964 63.601,283.693 64.440,283.563 65.490 C 283.431 66.553,283.298 66.912,283.263 66.300 C 283.228 65.695,283.104 65.200,282.986 65.200 C 282.635 65.200,274.901 73.098,274.720 73.641 C 274.213 75.162,273.593 73.217,273.519 69.876 C 273.429 65.776,273.043 76.481,272.588 95.675 L 272.289 108.349 271.209 108.796 C 270.616 109.042,269.966 109.209,269.765 109.167 C 269.064 109.021,266.000 110.526,266.000 111.016 C 266.000 111.288,265.685 111.486,265.300 111.456 C 264.915 111.425,264.646 111.629,264.703 111.908 C 264.772 112.248,264.471 112.356,263.795 112.233 C 263.224 112.130,262.885 112.213,263.015 112.425 C 263.143 112.631,262.988 112.800,262.670 112.800 C 262.353 112.800,261.999 113.160,261.884 113.600 C 261.769 114.040,261.433 114.397,261.137 114.394 C 260.729 114.389,260.744 114.294,261.200 114.000 C 261.530 113.787,261.618 113.609,261.396 113.606 C 261.173 113.603,260.554 114.129,260.019 114.777 C 259.485 115.424,258.930 115.880,258.786 115.792 C 258.441 115.578,252.000 121.868,252.000 122.419 C 252.000 122.655,251.820 122.736,251.600 122.600 C 251.380 122.464,251.200 122.599,251.200 122.901 C 251.200 123.202,250.876 123.798,250.480 124.225 C 250.084 124.651,249.639 125.315,249.492 125.700 C 249.345 126.085,249.052 126.400,248.840 126.400 C 248.627 126.400,248.339 126.763,248.198 127.206 C 248.057 127.649,247.775 127.908,247.571 127.782 C 247.367 127.656,247.200 127.896,247.200 128.314 C 247.200 128.733,246.839 129.403,246.398 129.802 C 245.956 130.202,245.679 130.612,245.782 130.715 C 245.884 130.818,245.712 131.396,245.400 132.000 C 245.088 132.604,244.945 133.211,245.083 133.349 C 245.221 133.487,245.126 133.600,244.872 133.600 C 244.368 133.600,243.163 136.166,243.309 136.927 C 243.359 137.187,243.193 137.361,242.941 137.314 C 242.669 137.263,242.566 137.548,242.688 138.014 C 242.801 138.449,242.694 138.800,242.447 138.800 C 242.192 138.800,242.000 139.489,242.000 140.400 C 242.000 141.280,241.820 142.000,241.600 142.000 C 241.380 142.000,241.200 142.504,241.200 143.120 C 241.200 143.736,241.035 144.411,240.832 144.620 C 239.967 145.514,239.253 161.996,240.079 162.006 C 240.454 162.011,240.432 162.121,240.000 162.400 C 239.600 162.658,239.567 162.790,239.900 162.794 C 240.233 162.798,240.400 163.470,240.400 164.800 C 240.400 165.900,240.580 166.800,240.800 166.800 C 241.020 166.800,241.200 167.610,241.200 168.600 C 241.200 169.590,241.380 170.400,241.600 170.400 C 241.820 170.400,242.000 170.745,242.000 171.167 C 242.000 171.589,242.366 172.787,242.813 173.829 C 243.259 174.872,243.560 175.920,243.480 176.159 C 243.401 176.398,243.577 176.834,243.872 177.129 C 244.166 177.423,244.317 177.811,244.206 177.990 C 244.095 178.170,244.292 178.427,244.644 178.561 C 245.008 178.701,245.185 179.063,245.054 179.403 C 244.928 179.732,244.978 180.000,245.164 180.000 C 245.550 180.000,246.645 182.428,246.485 182.930 C 246.427 183.111,246.532 183.166,246.717 183.051 C 246.902 182.937,247.366 183.374,247.749 184.022 C 248.132 184.670,248.347 185.200,248.226 185.200 C 248.106 185.200,248.543 185.712,249.199 186.338 C 249.854 186.965,250.272 187.595,250.128 187.738 C 249.984 187.882,250.087 188.000,250.357 188.000 C 250.627 188.000,250.744 188.167,250.618 188.371 C 250.492 188.575,250.751 188.857,251.194 188.998 C 251.637 189.139,252.000 189.512,252.000 189.827 C 252.000 190.142,252.135 190.400,252.301 190.400 C 252.466 190.400,254.180 191.926,256.109 193.791 C 258.039 195.656,259.658 197.145,259.709 197.098 C 259.949 196.878,261.561 198.306,261.331 198.536 C 261.186 198.681,261.412 198.806,261.833 198.813 C 262.750 198.828,264.096 199.771,263.727 200.140 C 263.584 200.283,263.947 200.400,264.533 200.400 C 265.120 200.400,265.600 200.580,265.600 200.800 C 265.600 201.020,265.870 201.200,266.200 201.200 C 266.530 201.200,266.800 201.380,266.800 201.600 C 266.800 201.820,266.982 202.000,267.204 202.000 C 267.843 202.000,271.368 203.710,271.694 204.178 C 271.878 204.443,271.990 204.384,271.994 204.020 C 271.999 203.569,272.107 203.547,272.480 203.920 C 272.744 204.184,273.284 204.400,273.680 204.400 C 274.076 204.400,274.400 204.580,274.400 204.800 C 274.400 205.020,274.850 205.200,275.400 205.200 C 275.950 205.200,276.400 205.357,276.400 205.548 C 276.400 205.873,280.846 206.613,281.855 206.456 C 282.105 206.417,282.825 206.600,283.455 206.861 C 284.653 207.358,297.231 207.646,297.600 207.184 C 297.710 207.047,299.420 206.645,301.400 206.291 C 307.368 205.226,309.600 204.576,309.600 203.902 C 309.600 203.736,310.125 203.600,310.767 203.600 C 311.408 203.600,311.993 203.465,312.067 203.300 C 312.218 202.960,315.625 201.197,316.129 201.199 C 316.309 201.200,316.729 200.928,317.061 200.596 C 317.393 200.264,317.875 200.113,318.132 200.260 C 318.390 200.408,318.473 200.387,318.317 200.215 C 318.015 199.879,320.533 198.000,321.284 198.000 C 321.531 198.000,321.614 197.881,321.469 197.735 C 321.323 197.590,321.877 197.014,322.699 196.455 C 324.792 195.033,331.668 188.201,331.338 187.872 C 331.189 187.722,331.367 187.600,331.733 187.600 C 332.100 187.600,332.356 187.465,332.303 187.300 C 332.135 186.779,333.457 185.191,333.800 185.503 C 333.981 185.666,334.020 185.609,333.887 185.375 C 333.605 184.879,334.930 182.696,335.330 182.997 C 335.479 183.109,335.516 183.086,335.414 182.947 C 335.312 182.808,335.438 182.313,335.695 181.847 C 335.952 181.381,336.198 180.781,336.243 180.514 C 336.288 180.247,336.683 179.526,337.121 178.911 C 337.559 178.296,338.124 177.024,338.377 176.084 C 338.630 175.145,339.009 174.482,339.219 174.612 C 339.429 174.741,339.600 174.298,339.600 173.624 C 339.600 172.951,339.774 172.400,339.987 172.400 C 340.201 172.400,340.278 172.148,340.160 171.840 C 340.042 171.533,340.141 171.160,340.379 171.013 C 340.618 170.865,340.709 170.577,340.583 170.372 C 340.456 170.168,340.511 170.000,340.705 170.000 C 340.898 170.000,341.026 169.376,340.988 168.613 C 340.950 167.850,341.072 167.321,341.259 167.437 C 341.447 167.552,341.600 166.387,341.600 164.847 C 341.600 163.307,341.780 161.936,342.000 161.800 C 342.506 161.487,342.539 149.905,342.035 149.380 C 341.835 149.171,341.578 148.010,341.466 146.800 C 341.100 142.868,340.893 141.819,340.244 140.600 C 339.892 139.940,339.604 139.006,339.602 138.524 C 339.601 138.042,339.420 137.536,339.200 137.400 C 338.980 137.264,338.800 136.728,338.800 136.210 C 338.800 135.691,338.612 135.204,338.382 135.127 C 338.152 135.051,337.935 134.591,337.898 134.105 C 337.861 133.619,337.581 133.125,337.274 133.007 C 336.965 132.888,336.822 132.519,336.954 132.176 C 337.089 131.823,337.022 131.663,336.795 131.803 C 336.578 131.937,336.400 131.750,336.400 131.387 C 336.400 131.023,336.040 130.269,335.600 129.709 C 335.160 129.150,334.800 128.436,334.800 128.122 C 334.800 127.809,334.647 127.647,334.460 127.763 C 334.273 127.878,333.870 127.484,333.563 126.886 C 333.256 126.289,332.689 125.509,332.303 125.153 C 331.916 124.797,331.600 124.302,331.600 124.053 C 331.600 123.804,331.420 123.600,331.200 123.600 C 330.980 123.600,330.790 123.375,330.778 123.100 C 330.767 122.825,329.211 121.160,327.322 119.400 C 325.432 117.640,323.264 115.615,322.503 114.900 C 321.742 114.185,320.913 113.594,320.660 113.587 C 319.977 113.568,318.772 112.561,319.073 112.260 C 319.216 112.117,318.943 112.000,318.467 112.000 C 317.990 112.000,317.600 111.809,317.600 111.576 C 317.600 111.343,317.439 111.252,317.242 111.374 C 317.045 111.496,316.781 111.326,316.654 110.998 C 316.528 110.669,316.104 110.399,315.713 110.397 C 315.321 110.396,314.488 110.057,313.862 109.645 C 313.237 109.232,312.382 108.984,311.962 109.094 C 311.543 109.204,311.200 109.092,311.200 108.847 C 311.200 108.601,310.840 108.400,310.400 108.400 C 309.610 108.400,309.600 108.133,309.600 86.000 L 309.600 63.600 336.600 63.600 L 363.600 63.600 363.690 145.700 C 363.740 190.855,363.879 222.940,364.000 217.000 C 364.121 211.060,364.260 208.405,364.310 211.100 C 364.359 213.795,364.493 216.000,364.606 216.000 C 364.720 216.000,366.154 214.695,367.794 213.100 C 369.433 211.505,371.725 209.314,372.887 208.232 L 375.000 206.263 375.121 108.732 L 375.241 11.200 382.021 11.200 L 388.800 11.200 388.800 52.200 C 388.800 79.267,388.936 93.200,389.200 93.200 C 389.420 93.200,389.600 93.483,389.600 93.829 C 389.600 94.637,390.563 95.600,391.371 95.600 C 391.717 95.600,392.000 95.780,392.000 96.000 C 392.000 96.685,396.489 96.407,397.800 95.640 C 400.096 94.298,399.988 96.664,399.994 47.518 L 400.000 2.036 398.982 1.018 L 397.964 0.000 382.282 0.028 C 373.657 0.044,366.240 0.211,365.800 0.400 M338.300 38.647 L 363.600 38.915 363.600 44.992 L 363.600 51.070 347.334 51.335 C 338.388 51.481,326.238 51.600,320.334 51.600 L 309.600 51.600 309.600 44.758 L 309.600 37.916 311.300 38.147 C 312.235 38.274,324.385 38.499,338.300 38.647 M284.298 73.900 C 284.225 75.825,284.165 74.250,284.165 70.400 C 284.165 66.550,284.225 64.975,284.298 66.900 C 284.371 68.825,284.371 71.975,284.298 73.900 M297.200 84.400 C 297.200 98.000,297.062 105.200,296.800 105.200 C 296.580 105.200,296.400 105.012,296.400 104.781 C 296.400 104.506,294.443 104.383,290.700 104.423 L 285.000 104.484 284.896 84.042 L 284.793 63.600 290.996 63.600 L 297.200 63.600 297.200 84.400 M139.329 103.900 C 147.211 103.961,159.991 103.961,167.729 103.900 C 175.468 103.839,169.020 103.789,153.400 103.790 C 137.780 103.790,131.448 103.839,139.329 103.900 M218.039 122.400 C 217.952 128.230,217.805 132.505,217.713 131.900 C 217.622 131.295,217.463 130.800,217.361 130.800 C 217.017 130.800,208.490 139.532,208.309 140.069 C 208.161 140.507,208.013 140.504,207.465 140.051 C 206.845 139.539,206.800 147.210,206.800 252.775 C 206.800 328.188,206.934 365.965,207.200 365.800 C 207.456 365.642,207.600 366.929,207.600 369.376 C 207.600 373.561,207.723 373.758,209.200 371.956 C 209.750 371.285,211.873 369.034,213.918 366.955 L 217.637 363.173 218.033 340.487 C 218.255 327.778,218.379 272.498,218.314 214.800 C 218.250 158.150,218.127 116.570,218.039 122.400 M296.117 117.300 L 297.194 117.800 297.197 123.900 L 297.200 130.000 296.176 130.000 C 295.553 130.000,295.256 129.833,295.416 129.573 C 295.599 129.279,294.251 129.175,291.057 129.239 C 288.514 129.290,286.527 129.482,286.641 129.666 C 286.754 129.850,286.387 130.000,285.824 130.000 L 284.800 130.000 284.800 123.944 C 284.800 118.646,284.888 117.822,285.500 117.357 C 286.436 116.646,294.615 116.602,296.117 117.300 M271.166 138.031 C 270.478 138.674,270.097 139.200,270.318 139.200 C 270.540 139.200,270.199 139.759,269.560 140.442 C 268.922 141.126,268.400 141.946,268.400 142.266 C 268.400 142.586,268.220 142.736,268.000 142.600 C 267.780 142.464,267.600 142.713,267.600 143.153 C 267.600 143.593,267.420 144.064,267.200 144.200 C 266.980 144.336,266.800 144.797,266.800 145.224 C 266.800 145.651,266.620 146.000,266.400 146.000 C 266.180 146.000,266.000 146.439,266.000 146.976 C 266.000 147.513,265.820 148.064,265.600 148.200 C 265.380 148.336,265.200 149.167,265.200 150.047 C 265.200 151.012,265.041 151.549,264.800 151.400 C 264.165 151.008,264.315 158.833,264.992 161.432 C 265.317 162.681,265.486 163.860,265.368 164.052 C 265.250 164.243,265.299 164.400,265.479 164.400 C 265.658 164.400,266.045 164.985,266.338 165.700 C 267.337 168.133,268.198 169.798,269.100 171.038 C 269.595 171.719,270.000 172.494,270.000 172.761 C 270.000 173.029,270.180 173.136,270.400 173.000 C 270.620 172.864,270.800 172.956,270.800 173.205 C 270.800 173.454,271.070 173.927,271.400 174.257 C 271.730 174.587,272.000 174.735,272.000 174.586 C 272.000 174.437,272.522 174.874,273.160 175.558 C 273.799 176.241,274.532 176.800,274.789 176.800 C 275.320 176.800,276.636 177.993,276.129 178.014 C 275.948 178.021,276.478 178.348,277.307 178.740 C 278.135 179.133,278.728 179.539,278.624 179.643 C 278.520 179.747,278.828 179.862,279.310 179.898 C 280.114 179.959,281.069 180.318,282.895 181.247 C 283.277 181.441,284.121 181.600,284.771 181.600 C 285.421 181.600,286.064 181.780,286.200 182.000 C 286.341 182.229,288.396 182.400,291.000 182.400 C 293.604 182.400,295.659 182.229,295.800 182.000 C 295.936 181.780,296.667 181.600,297.424 181.600 C 298.181 181.600,298.800 181.420,298.800 181.200 C 298.800 180.980,299.340 180.800,300.000 180.800 C 300.660 180.800,301.200 180.620,301.200 180.400 C 301.200 180.180,301.335 180.021,301.500 180.047 C 302.695 180.236,303.753 179.957,303.200 179.600 C 302.734 179.299,302.851 179.211,303.724 179.206 C 304.342 179.203,304.760 179.058,304.652 178.885 C 304.545 178.712,305.027 178.318,305.723 178.010 C 306.419 177.702,307.835 176.603,308.871 175.568 C 309.906 174.533,310.853 173.786,310.976 173.910 C 311.099 174.033,311.200 173.833,311.200 173.467 C 311.200 173.100,311.380 172.800,311.600 172.800 C 311.820 172.800,312.000 172.618,312.000 172.397 C 312.000 172.175,312.489 171.444,313.087 170.773 C 314.374 169.329,315.628 166.769,315.305 166.246 C 315.179 166.043,315.284 166.005,315.538 166.162 C 315.848 166.353,316.000 166.052,316.000 165.247 C 316.000 164.587,316.180 163.936,316.400 163.800 C 316.620 163.664,316.800 162.879,316.800 162.056 C 316.800 161.233,316.992 160.368,317.227 160.133 C 318.003 159.357,317.227 148.711,316.356 148.173 C 316.160 148.052,316.000 147.524,316.000 147.000 C 316.000 146.476,315.820 145.936,315.600 145.800 C 315.380 145.664,315.200 145.193,315.200 144.753 C 315.200 144.313,315.020 144.064,314.800 144.200 C 314.572 144.341,314.400 143.996,314.400 143.400 C 314.400 142.804,314.228 142.459,314.000 142.600 C 313.780 142.736,313.600 142.554,313.600 142.195 C 313.600 141.836,313.375 141.306,313.100 141.016 C 312.045 139.904,311.200 138.778,311.200 138.484 C 311.200 138.315,310.840 137.917,310.400 137.600 C 309.649 137.059,309.600 136.565,309.600 129.512 C 309.600 121.474,309.702 121.117,311.508 122.800 C 311.980 123.240,312.578 123.600,312.836 123.600 C 313.095 123.600,313.609 123.949,313.978 124.375 C 314.348 124.801,314.897 125.206,315.198 125.275 C 315.768 125.405,320.800 130.207,320.800 130.621 C 320.800 130.751,321.025 131.094,321.300 131.384 C 322.582 132.734,323.200 133.660,323.200 134.228 C 323.200 134.569,323.380 134.736,323.600 134.600 C 323.820 134.464,324.000 134.633,324.000 134.976 C 324.000 135.319,324.180 135.600,324.400 135.600 C 324.620 135.600,324.800 135.872,324.800 136.205 C 324.800 136.903,325.612 138.462,326.200 138.894 C 326.420 139.056,326.437 139.191,326.238 139.194 C 326.039 139.197,326.139 139.515,326.461 139.900 C 327.186 140.768,327.853 142.402,327.807 143.200 C 327.789 143.530,327.897 143.890,328.047 144.000 C 328.198 144.110,328.425 144.740,328.553 145.400 C 328.680 146.060,328.994 147.410,329.249 148.400 C 330.178 151.997,329.800 164.741,328.753 165.134 C 328.556 165.208,328.499 165.437,328.627 165.644 C 329.008 166.261,328.380 168.435,327.906 168.142 C 327.670 167.996,327.585 168.052,327.717 168.266 C 328.045 168.796,327.112 171.843,326.349 172.735 C 326.009 173.132,325.477 174.029,325.168 174.728 C 324.858 175.428,324.469 176.000,324.302 176.000 C 324.136 176.000,324.000 176.270,324.000 176.600 C 324.000 176.930,323.809 177.200,323.576 177.200 C 323.343 177.200,323.255 177.365,323.380 177.568 C 323.505 177.770,323.336 178.207,323.004 178.539 C 322.672 178.871,322.400 179.221,322.400 179.316 C 322.400 179.411,321.590 180.359,320.600 181.422 C 319.610 182.485,318.800 183.500,318.800 183.677 C 318.800 183.855,318.621 184.000,318.402 184.000 C 318.183 184.000,317.085 184.900,315.961 186.000 C 314.838 187.100,313.667 188.000,313.359 188.000 C 313.052 188.000,312.800 188.180,312.800 188.400 C 312.800 188.620,312.429 188.800,311.976 188.800 C 311.523 188.800,311.264 188.980,311.400 189.200 C 311.536 189.420,311.367 189.600,311.024 189.600 C 310.681 189.600,310.400 189.780,310.400 190.000 C 310.400 190.220,310.130 190.400,309.800 190.400 C 309.470 190.400,309.200 190.580,309.200 190.800 C 309.200 191.020,308.840 191.200,308.400 191.200 C 307.960 191.200,307.600 191.380,307.600 191.600 C 307.600 191.820,307.251 192.000,306.824 192.000 C 306.397 192.000,305.925 192.197,305.777 192.438 C 305.628 192.678,305.077 192.793,304.553 192.693 C 303.964 192.580,303.600 192.700,303.600 193.007 C 303.600 193.312,303.145 193.463,302.417 193.401 C 301.766 193.346,301.271 193.481,301.317 193.702 C 301.363 193.923,300.680 194.104,299.800 194.106 C 298.920 194.108,297.980 194.282,297.712 194.493 C 296.997 195.057,284.883 194.967,284.192 194.393 C 283.886 194.139,283.466 194.035,283.260 194.163 C 283.054 194.290,282.146 194.134,281.243 193.815 C 280.339 193.496,279.600 193.340,279.600 193.467 C 279.600 193.594,279.302 193.451,278.939 193.149 C 278.575 192.847,277.961 192.654,277.574 192.719 C 277.187 192.785,276.754 192.650,276.612 192.419 C 276.469 192.189,276.037 192.000,275.652 192.000 C 275.266 192.000,274.602 191.685,274.175 191.300 C 273.749 190.915,273.040 190.539,272.600 190.463 C 272.160 190.388,271.740 190.163,271.667 189.963 C 271.593 189.764,271.323 189.600,271.067 189.600 C 270.810 189.599,270.120 189.194,269.534 188.700 C 267.117 186.661,266.781 186.400,266.578 186.400 C 266.050 186.400,259.600 179.472,259.600 178.904 C 259.600 178.554,259.483 178.384,259.340 178.527 C 259.001 178.866,258.029 177.583,258.013 176.775 C 258.006 176.432,257.622 175.746,257.161 175.250 C 256.699 174.755,256.277 174.136,256.223 173.875 C 256.169 173.614,255.723 172.500,255.232 171.400 C 254.740 170.300,254.314 169.085,254.284 168.700 C 254.254 168.315,254.088 168.000,253.915 168.000 C 253.742 168.000,253.600 167.586,253.600 167.080 C 253.600 166.574,253.437 165.989,253.239 165.780 C 252.386 164.882,251.618 151.422,252.377 150.663 C 252.610 150.430,252.800 149.464,252.800 148.515 C 252.800 147.566,252.968 146.477,253.173 146.095 C 253.379 145.713,253.778 144.545,254.061 143.500 C 254.343 142.455,254.715 141.600,254.887 141.600 C 255.059 141.600,255.200 141.255,255.200 140.833 C 255.200 140.412,255.388 140.004,255.618 139.927 C 255.848 139.851,256.066 139.386,256.103 138.894 C 256.140 138.402,256.277 138.000,256.408 138.000 C 256.539 138.000,256.964 137.280,257.352 136.400 C 257.740 135.520,258.235 134.800,258.453 134.800 C 258.670 134.800,258.745 134.635,258.620 134.432 C 258.495 134.230,258.664 133.793,258.996 133.461 C 259.328 133.129,259.600 132.654,259.600 132.405 C 259.600 132.156,259.780 132.064,260.000 132.200 C 260.220 132.336,260.400 132.166,260.400 131.822 C 260.400 131.116,265.936 125.471,266.824 125.270 C 267.141 125.198,267.460 124.972,267.534 124.768 C 267.608 124.563,267.833 124.497,268.034 124.621 C 268.235 124.745,268.400 124.607,268.400 124.313 C 268.400 124.020,269.208 123.424,270.196 122.990 C 271.184 122.555,272.035 122.020,272.087 121.800 C 272.139 121.580,272.235 124.879,272.300 129.131 L 272.417 136.863 271.166 138.031 M391.200 123.436 C 390.650 123.979,389.885 124.719,389.500 125.081 C 388.151 126.350,388.623 191.313,389.979 191.178 C 390.101 191.166,391.010 190.262,392.000 189.170 C 395.824 184.951,399.179 181.600,399.581 181.600 C 399.869 181.600,399.996 172.837,399.987 153.500 C 399.974 124.557,399.945 124.000,398.456 124.000 C 398.205 124.000,398.000 123.849,398.000 123.664 C 398.000 122.178,392.656 121.999,391.200 123.436 M293.420 141.966 C 293.629 142.167,294.340 142.392,295.000 142.466 C 295.660 142.540,296.549 142.915,296.975 143.300 C 297.402 143.685,297.959 144.000,298.213 144.000 C 298.468 144.000,299.002 144.360,299.400 144.800 C 299.798 145.240,300.366 145.600,300.662 145.600 C 300.958 145.600,301.200 145.842,301.200 146.138 C 301.200 146.434,301.560 147.002,302.000 147.400 C 302.440 147.798,302.800 148.377,302.800 148.686 C 302.800 148.994,302.980 149.136,303.200 149.000 C 303.548 148.785,303.790 149.596,303.647 150.500 C 303.621 150.665,303.780 150.800,304.000 150.800 C 304.220 150.800,304.400 151.149,304.400 151.576 C 304.400 152.003,304.580 152.464,304.800 152.600 C 305.020 152.736,305.200 154.266,305.200 156.000 C 305.200 157.734,305.020 159.264,304.800 159.400 C 304.580 159.536,304.400 160.087,304.400 160.624 C 304.400 161.161,304.220 161.600,304.000 161.600 C 303.780 161.600,303.600 161.793,303.600 162.028 C 303.600 163.832,298.263 168.632,295.400 169.402 C 289.418 171.012,280.159 167.679,279.270 163.597 C 279.198 163.269,278.973 162.940,278.770 162.867 C 278.566 162.793,278.400 162.478,278.400 162.167 C 278.400 161.855,278.220 161.600,278.000 161.600 C 277.780 161.600,277.600 161.060,277.600 160.400 C 277.600 159.740,277.420 159.200,277.200 159.200 C 276.967 159.200,276.800 157.875,276.800 156.024 C 276.800 154.277,276.980 152.736,277.200 152.600 C 277.420 152.464,277.600 151.913,277.600 151.376 C 277.600 150.839,277.780 150.400,278.000 150.400 C 278.220 150.400,278.400 150.106,278.400 149.747 C 278.400 149.388,278.727 148.803,279.128 148.447 C 279.528 148.091,279.972 147.485,280.115 147.100 C 280.258 146.715,280.651 146.400,280.987 146.400 C 281.339 146.400,281.600 146.049,281.600 145.576 C 281.600 145.123,281.765 144.855,281.968 144.980 C 282.170 145.105,282.587 144.956,282.894 144.648 C 283.749 143.794,286.837 142.400,287.875 142.400 C 288.384 142.400,288.800 142.220,288.800 142.000 C 288.800 141.499,292.903 141.469,293.420 141.966 M181.692 164.300 L 181.600 181.600 164.300 181.692 C 154.785 181.742,150.955 181.836,155.788 181.900 C 160.621 181.964,164.736 182.176,164.931 182.371 C 165.137 182.577,163.888 184.159,161.943 186.152 C 160.104 188.037,158.221 189.988,157.757 190.489 C 157.293 190.990,156.528 191.665,156.057 191.988 C 154.416 193.115,155.281 193.200,168.400 193.200 L 181.600 193.200 181.600 200.000 L 181.600 206.800 160.551 206.800 C 140.972 206.800,139.540 206.846,140.051 207.465 C 140.504 208.013,140.507 208.161,140.069 208.309 C 139.506 208.498,130.800 217.025,130.800 217.387 C 130.800 217.504,131.295 217.640,131.900 217.690 C 132.505 217.739,128.230 217.879,122.400 218.000 C 116.324 218.126,126.696 218.258,146.700 218.310 L 181.600 218.400 181.600 238.600 L 181.600 258.800 108.900 258.896 C 68.915 258.949,45.875 259.041,57.700 259.100 C 76.441 259.193,79.200 259.284,79.200 259.803 C 79.200 260.292,79.921 260.400,83.200 260.400 C 88.056 260.400,88.095 259.936,82.800 265.200 C 77.902 270.070,77.971 269.968,79.500 270.083 C 80.105 270.128,78.080 270.271,75.000 270.400 C 71.515 270.546,77.331 270.702,90.400 270.814 C 109.818 270.980,108.568 271.009,73.800 271.200 C 42.719 271.370,48.804 271.423,108.900 271.503 L 181.600 271.600 181.600 277.800 L 181.600 284.000 118.100 284.057 C 83.175 284.088,55.320 284.236,56.200 284.385 L 57.800 284.656 56.200 284.861 C 55.320 284.973,56.940 285.125,59.800 285.197 C 62.660 285.269,64.390 285.402,63.645 285.493 C 62.644 285.616,61.784 286.199,60.348 287.729 C 57.935 290.301,57.500 290.736,54.938 293.139 L 52.876 295.074 63.103 295.337 C 68.728 295.482,78.926 295.643,85.765 295.696 C 92.604 295.749,84.250 295.886,67.200 296.000 C 45.089 296.148,57.046 296.235,108.900 296.304 L 181.600 296.400 181.600 316.400 L 181.600 336.400 109.000 336.400 L 36.400 336.400 36.317 320.100 C 36.262 309.327,36.154 305.767,36.000 309.600 C 35.872 312.790,35.729 314.815,35.683 314.100 C 35.570 312.335,35.772 312.202,30.400 317.600 C 27.773 320.240,25.438 322.400,25.212 322.400 C 24.933 322.400,24.800 333.101,24.800 355.600 L 24.800 388.800 18.000 388.800 L 11.200 388.800 11.170 364.500 C 11.154 351.135,10.997 339.390,10.820 338.400 C 10.644 337.410,10.478 336.831,10.450 337.114 C 10.401 337.620,9.490 338.739,7.690 340.506 C 2.642 345.462,0.751 347.200,0.406 347.200 C 0.135 347.200,0.000 355.659,0.000 372.582 L 0.000 397.964 1.018 398.982 L 2.036 400.000 18.003 400.000 C 35.043 400.000,35.600 399.934,35.600 397.901 C 35.600 397.709,35.770 397.658,35.978 397.786 C 36.211 397.930,36.368 393.477,36.388 386.132 C 36.406 379.595,36.488 374.178,36.570 374.097 C 36.652 374.015,69.317 373.841,109.159 373.710 L 181.600 373.472 181.600 381.277 C 181.600 390.118,181.897 394.000,182.572 394.000 C 182.824 394.000,183.071 394.540,183.121 395.200 C 183.172 395.860,183.050 396.400,182.851 396.400 C 182.652 396.400,182.514 396.104,182.544 395.743 C 182.575 395.382,182.330 394.992,182.000 394.878 C 181.509 394.708,181.490 394.779,181.897 395.272 C 182.170 395.603,182.279 395.988,182.139 396.127 C 182.000 396.267,182.180 396.494,182.540 396.632 C 182.901 396.771,183.124 397.000,183.036 397.142 C 182.948 397.284,183.319 397.427,183.859 397.459 C 184.771 397.514,184.789 397.479,184.120 396.972 C 183.671 396.631,183.593 396.421,183.911 396.413 C 184.443 396.399,185.008 395.908,190.000 391.119 L 193.000 388.241 193.114 271.721 C 193.177 207.634,193.082 155.200,192.902 155.200 C 192.723 155.200,192.312 155.586,191.988 156.057 C 191.665 156.528,190.990 157.293,190.489 157.757 C 189.988 158.221,188.037 160.104,186.152 161.943 C 184.159 163.888,182.577 165.137,182.371 164.931 C 182.176 164.736,181.964 160.621,181.900 155.788 C 181.836 150.955,181.742 154.785,181.692 164.300 M181.600 355.000 L 181.600 361.200 109.000 361.200 L 36.400 361.200 36.400 355.000 L 36.400 348.800 109.000 348.800 L 181.600 348.800 181.600 355.000 "
       stroke="none"
       fill="#41bed7"
       fill-rule="evenodd"
       style="fill:#41bed7;fill-opacity:1" />
    <path
       id="path1"
       d="M1.018 1.018 L 0.000 2.036 0.000 69.616 L 0.000 137.195 5.116 132.097 L 10.231 127.000 10.720 118.400 C 11.057 112.477,11.208 94.454,11.205 60.500 L 11.200 11.200 18.000 11.200 L 24.800 11.200 24.800 60.350 C 24.800 87.383,24.910 110.049,25.044 110.720 L 25.288 111.940 30.415 106.801 C 33.935 103.271,35.603 101.307,35.738 100.530 C 35.847 99.909,35.893 100.527,35.842 101.904 C 35.790 103.280,35.892 104.180,36.068 103.904 C 36.322 103.504,36.389 103.503,36.394 103.900 C 36.401 104.455,80.862 104.528,109.800 104.021 C 120.870 103.827,112.964 103.733,80.700 103.677 L 36.400 103.600 36.400 83.600 L 36.400 63.600 62.700 63.572 C 77.747 63.556,88.658 63.397,88.200 63.200 C 87.760 63.011,85.195 62.844,82.500 62.828 C 79.519 62.811,77.600 62.643,77.600 62.400 C 77.600 62.180,77.150 62.000,76.600 62.000 C 75.193 62.000,75.133 62.085,79.992 57.208 L 84.384 52.800 91.692 52.715 L 99.000 52.631 92.600 52.400 C 88.349 52.247,92.145 52.141,103.900 52.085 C 115.377 52.030,121.600 51.859,121.600 51.600 C 121.600 51.336,107.133 51.200,79.000 51.200 L 36.400 51.200 36.400 45.000 L 36.400 38.800 75.100 38.710 C 96.385 38.660,108.850 38.521,102.800 38.400 L 91.800 38.181 102.800 38.004 L 113.800 37.827 106.200 37.600 C 102.020 37.475,98.920 37.334,99.312 37.287 C 99.703 37.239,102.148 35.065,104.745 32.456 C 107.341 29.846,109.721 27.611,110.033 27.487 C 110.345 27.364,106.475 27.249,101.433 27.232 C 96.392 27.214,92.385 27.081,92.530 26.937 C 92.675 26.792,112.820 26.554,137.297 26.407 C 181.569 26.143,181.423 26.141,109.100 26.071 L 36.400 26.000 36.400 14.160 L 36.400 2.321 35.158 1.160 L 33.915 0.000 17.976 0.000 L 2.036 0.000 1.018 1.018 M254.732 26.300 C 274.824 26.357,307.584 26.357,327.532 26.300 C 347.479 26.243,331.040 26.196,291.000 26.196 C 250.960 26.196,234.639 26.243,254.732 26.300 M36.400 128.800 C 36.400 129.053,39.333 129.200,44.400 129.200 C 49.467 129.200,52.400 129.053,52.400 128.800 C 52.400 128.547,49.467 128.400,44.400 128.400 C 39.333 128.400,36.400 128.547,36.400 128.800 M79.209 128.522 C 79.558 128.833,84.404 129.129,84.218 128.828 C 84.117 128.666,82.906 128.492,81.526 128.442 C 80.147 128.392,79.104 128.428,79.209 128.522 "
       stroke="none"
       fill="#5dabf6"
       fill-rule="evenodd" />
    <path
       id="path2"
       d="M217.200 2.154 C 217.200 2.239,217.469 2.824,217.798 3.454 C 218.421 4.650,218.559 4.433,218.148 2.900 C 217.952 2.170,217.200 1.578,217.200 2.154 M217.674 8.505 L 217.600 10.810 213.900 14.599 C 211.865 16.683,209.615 19.015,208.900 19.782 L 207.600 21.177 207.513 26.889 C 207.429 32.374,207.416 32.275,207.200 24.400 C 207.076 19.890,206.936 43.943,206.887 77.851 C 206.807 134.910,206.850 139.543,207.465 140.051 C 208.013 140.504,208.161 140.507,208.309 140.069 C 208.490 139.532,217.017 130.800,217.361 130.800 C 217.463 130.800,217.607 131.295,217.680 131.900 C 217.928 133.948,218.400 101.581,218.400 82.534 L 218.400 63.600 245.400 63.600 L 272.400 63.600 272.463 76.100 C 272.532 89.539,273.010 88.110,273.234 73.800 C 273.331 67.608,273.395 66.898,273.577 69.968 C 273.724 72.459,273.969 73.792,274.300 73.901 C 274.575 73.992,274.800 73.878,274.800 73.647 C 274.800 73.246,282.572 65.200,282.959 65.200 C 283.063 65.200,283.222 65.695,283.313 66.300 C 283.418 66.990,283.502 66.700,283.540 65.524 C 283.703 60.415,284.197 64.170,284.173 70.338 L 284.145 77.400 284.373 70.400 C 284.627 62.558,284.667 62.421,286.724 62.346 C 287.654 62.311,287.867 62.227,287.300 62.118 C 286.085 61.884,286.172 61.632,288.035 60.000 C 289.670 58.567,290.148 58.095,293.100 55.002 C 295.301 52.696,295.400 52.800,291.013 52.800 C 287.845 52.800,287.262 52.704,287.451 52.212 C 287.627 51.752,288.695 51.595,292.338 51.490 C 295.736 51.393,295.319 51.362,290.800 51.378 L 284.600 51.400 284.719 45.119 L 284.838 38.838 291.219 38.719 L 297.601 38.600 297.601 39.876 C 297.600 40.578,297.780 41.264,298.000 41.400 C 298.226 41.539,298.426 43.773,298.460 46.524 C 298.493 49.206,298.597 50.885,298.691 50.255 C 298.852 49.179,305.169 42.439,307.542 40.812 C 308.014 40.488,308.400 39.903,308.400 39.512 C 308.400 39.120,308.580 38.800,308.800 38.800 C 309.020 38.800,309.200 38.542,309.200 38.227 C 309.200 37.912,309.581 37.533,310.046 37.385 C 310.808 37.144,320.000 28.296,320.000 27.804 C 320.000 27.692,318.065 27.579,315.700 27.554 C 313.335 27.528,311.717 27.424,312.105 27.323 C 315.099 26.542,307.902 26.400,265.376 26.400 L 218.400 26.400 218.347 25.500 C 218.319 25.005,218.172 20.460,218.021 15.400 C 217.871 10.340,217.714 7.237,217.674 8.505 M188.526 40.131 C 186.505 42.149,184.263 44.308,183.543 44.930 C 182.366 45.946,182.218 46.318,182.070 48.630 L 181.907 51.200 179.853 51.213 C 176.343 51.234,175.662 52.328,179.050 52.502 L 181.800 52.643 178.895 52.722 L 175.990 52.800 172.258 56.500 C 170.205 58.535,168.138 60.465,167.663 60.788 C 166.112 61.846,166.725 62.000,172.500 62.006 C 176.328 62.010,178.003 62.140,177.600 62.400 C 177.270 62.613,174.030 62.824,170.400 62.868 L 163.800 62.948 172.000 63.219 C 176.510 63.368,180.515 63.515,180.900 63.545 C 181.557 63.597,181.600 64.850,181.600 83.805 L 181.600 104.011 153.233 103.905 C 137.632 103.847,124.873 103.890,124.881 104.000 C 124.938 104.810,124.714 105.200,124.193 105.200 C 123.859 105.200,122.425 106.325,121.007 107.700 C 119.589 109.075,117.532 111.010,116.436 112.000 C 113.735 114.441,113.659 114.389,120.100 114.483 L 125.800 114.566 120.000 114.800 L 114.200 115.034 119.600 115.204 C 124.954 115.374,124.928 115.377,116.600 115.600 C 111.980 115.724,124.715 115.864,144.900 115.912 L 181.600 116.000 181.600 122.198 L 181.600 128.396 145.500 128.498 C 116.877 128.579,109.421 128.704,109.500 129.100 C 109.555 129.375,109.383 129.555,109.118 129.500 C 108.853 129.445,108.628 129.610,108.618 129.867 C 108.608 130.123,108.436 130.483,108.236 130.667 C 108.031 130.854,107.976 130.816,108.109 130.581 C 108.682 129.572,107.741 129.107,106.465 129.767 C 105.369 130.333,105.268 130.526,105.602 131.404 C 105.845 132.043,105.840 132.400,105.590 132.400 C 105.376 132.400,105.197 132.085,105.194 131.700 C 105.189 131.114,105.127 131.096,104.817 131.587 C 104.585 131.953,104.596 132.354,104.846 132.655 C 105.142 133.012,105.033 133.081,104.423 132.922 C 103.694 132.731,103.603 132.883,103.628 134.253 C 103.650 135.483,103.727 135.636,104.000 135.000 C 104.189 134.560,104.356 134.427,104.372 134.705 C 104.387 134.983,104.183 135.558,103.918 135.983 C 103.364 136.870,104.533 138.605,105.353 138.114 C 105.599 137.967,105.568 138.133,105.283 138.484 C 104.843 139.028,104.946 139.249,105.983 139.988 C 106.653 140.465,107.200 140.730,107.200 140.578 C 107.200 140.426,107.437 140.499,107.726 140.739 C 108.098 141.047,118.997 141.181,144.799 141.194 C 164.899 141.204,181.421 141.288,181.514 141.381 C 181.607 141.473,181.781 146.787,181.902 153.188 C 182.022 159.590,182.269 164.919,182.449 165.031 C 182.728 165.203,184.437 163.646,190.489 157.706 C 190.990 157.215,191.805 156.366,192.300 155.821 L 193.200 154.829 193.199 103.714 C 193.198 55.518,192.981 36.359,192.437 36.431 C 192.306 36.449,190.547 38.114,188.526 40.131 M309.600 38.456 C 309.600 38.645,312.795 38.786,316.700 38.768 C 320.605 38.751,323.620 38.675,323.400 38.599 C 322.461 38.277,309.600 38.143,309.600 38.456 M272.400 45.000 L 272.400 51.200 245.400 51.200 L 218.400 51.200 218.400 45.000 L 218.400 38.800 245.400 38.800 L 272.400 38.800 272.400 45.000 M317.727 51.500 C 322.307 51.564,329.687 51.564,334.127 51.499 C 338.567 51.435,334.820 51.383,325.800 51.383 C 316.780 51.383,313.147 51.435,317.727 51.500 M86.933 130.575 C 86.933 130.900,87.071 131.080,87.239 130.976 C 87.408 130.872,87.828 131.190,88.173 131.682 C 88.518 132.175,88.800 132.389,88.800 132.159 C 88.800 131.928,88.380 131.345,87.867 130.863 C 87.174 130.212,86.933 130.138,86.933 130.575 M88.415 136.982 C 88.149 137.303,88.035 137.732,88.161 137.937 C 88.410 138.339,87.454 139.321,87.130 138.997 C 87.022 138.888,86.933 139.073,86.933 139.407 C 86.933 139.873,87.150 139.811,87.865 139.139 C 88.378 138.657,88.707 138.174,88.598 138.064 C 88.488 137.955,88.697 137.535,89.061 137.132 C 89.426 136.730,89.538 136.400,89.311 136.400 C 89.084 136.400,88.680 136.662,88.415 136.982 M80.800 140.800 L 79.000 141.080 81.124 141.140 C 82.451 141.177,83.155 141.050,83.000 140.800 C 82.864 140.580,82.718 140.427,82.676 140.460 C 82.634 140.493,81.790 140.646,80.800 140.800 M40.300 141.098 C 42.555 141.170,46.245 141.170,48.500 141.098 C 50.755 141.027,48.910 140.969,44.400 140.969 C 39.890 140.969,38.045 141.027,40.300 141.098 M51.945 181.950 L 46.089 182.200 44.945 183.526 C 44.315 184.255,42.119 186.564,40.064 188.657 C 38.009 190.749,36.449 192.583,36.597 192.731 C 36.745 192.879,63.394 193.059,95.816 193.131 L 154.766 193.262 155.789 192.331 C 156.352 191.819,157.215 190.990,157.706 190.489 C 164.633 183.431,165.264 182.704,164.837 182.277 C 164.342 181.782,62.787 181.488,51.945 181.950 M31.105 197.374 C 24.701 203.898,25.369 202.316,25.065 211.680 C 24.618 225.490,24.746 322.400,25.212 322.400 C 25.438 322.400,27.773 320.240,30.400 317.600 C 35.811 312.162,35.496 312.370,35.711 314.100 C 35.799 314.815,35.901 313.764,35.936 311.764 C 35.971 309.764,36.118 305.399,36.262 302.064 L 36.525 296.000 67.362 295.923 C 97.236 295.848,97.637 295.837,80.200 295.578 C 70.300 295.431,60.073 295.286,57.473 295.255 L 52.747 295.200 54.873 293.202 C 57.510 290.726,57.932 290.304,60.348 287.729 C 61.784 286.199,62.644 285.616,63.645 285.493 C 64.390 285.402,62.660 285.274,59.800 285.207 C 56.526 285.131,55.193 284.993,56.200 284.834 L 57.800 284.582 55.600 284.294 C 54.390 284.136,49.575 284.005,44.900 284.003 L 36.400 284.000 36.400 277.600 L 36.400 271.200 73.900 271.105 C 106.907 271.022,108.884 270.985,90.400 270.800 C 78.850 270.684,71.920 270.520,75.000 270.435 C 78.080 270.350,80.105 270.205,79.500 270.113 C 78.009 269.888,77.856 270.115,82.800 265.200 C 88.095 259.936,88.056 260.400,83.200 260.400 C 79.911 260.400,79.200 260.293,79.200 259.800 C 79.200 259.274,76.556 259.200,57.800 259.200 L 36.400 259.200 36.400 238.800 L 36.400 218.400 68.934 218.400 C 98.955 218.400,134.491 217.994,131.900 217.680 C 131.295 217.607,130.800 217.463,130.800 217.361 C 130.800 217.017,139.532 208.490,140.069 208.309 C 140.507 208.161,140.504 208.013,140.051 207.465 C 139.544 206.851,135.532 206.800,87.998 206.800 L 36.493 206.800 36.252 205.900 C 36.119 205.405,36.008 202.435,36.005 199.300 C 35.999 192.293,36.067 192.320,31.105 197.374 M10.800 213.467 C 10.800 216.473,10.694 218.827,10.565 218.698 C 10.435 218.568,8.287 220.473,5.791 222.931 C 3.295 225.389,0.971 227.632,0.626 227.916 C -0.136 228.544,-0.355 347.200,0.406 347.200 C 0.751 347.200,2.642 345.462,7.690 340.506 C 9.482 338.746,10.401 337.620,10.457 337.114 C 10.488 336.831,10.642 337.320,10.800 338.200 C 10.958 339.080,11.112 310.145,11.143 273.900 C 11.174 237.655,11.110 208.000,11.000 208.000 C 10.890 208.000,10.800 210.460,10.800 213.467 "
       stroke="none"
       fill="#4cb4e4"
       fill-rule="evenodd" />
    <path
       id="path3"
       d="M390.013 123.891 C 389.489 124.482,389.503 124.523,390.146 124.276 C 390.542 124.124,390.941 124.000,391.033 124.000 C 391.125 124.000,391.200 123.820,391.200 123.600 C 391.200 123.012,390.681 123.139,390.013 123.891 M242.467 174.020 C 242.701 174.692,242.967 175.167,243.057 175.076 C 243.256 174.878,242.501 172.800,242.231 172.800 C 242.127 172.800,242.233 173.349,242.467 174.020 M338.649 175.015 C 338.512 175.373,338.415 175.966,338.434 176.333 C 338.453 176.700,338.627 176.469,338.821 175.820 C 339.198 174.558,339.065 173.933,338.649 175.015 M396.497 184.325 C 390.633 190.591,389.954 191.287,389.834 191.147 C 389.764 191.066,389.531 189.290,389.315 187.200 C 389.048 184.618,388.903 216.312,388.861 286.100 L 388.800 388.800 382.000 388.800 L 375.200 388.800 375.112 292.100 C 375.064 238.915,374.969 197.893,374.901 200.940 L 374.777 206.480 372.776 208.340 C 371.675 209.363,369.433 211.505,367.794 213.100 C 366.154 214.695,364.720 216.000,364.606 216.000 C 364.493 216.000,364.366 213.795,364.324 211.100 C 364.281 208.405,364.127 211.600,363.980 218.200 C 363.834 224.800,363.688 267.883,363.657 313.940 L 363.600 397.679 364.842 398.840 L 366.085 400.000 382.024 400.000 L 397.964 400.000 398.982 398.982 L 400.000 397.964 400.000 289.782 C 400.000 203.489,399.899 181.605,399.500 181.625 C 399.225 181.640,397.874 182.855,396.497 184.325 M304.600 192.400 C 303.829 192.731,303.831 192.745,304.676 192.772 C 305.158 192.787,305.664 192.620,305.800 192.400 C 306.092 191.927,305.701 191.927,304.600 192.400 M217.906 346.959 L 217.691 363.119 213.946 366.927 C 211.886 369.022,209.750 371.285,209.200 371.956 C 207.723 373.758,207.600 373.561,207.600 369.376 C 207.600 366.929,207.456 365.642,207.200 365.800 C 206.949 365.955,206.800 370.271,206.800 377.424 L 206.800 388.800 200.000 388.800 L 193.200 388.800 193.115 384.300 L 193.030 379.800 192.901 384.133 L 192.772 388.466 189.886 391.232 C 185.002 395.912,184.440 396.400,183.911 396.413 C 183.593 396.421,183.671 396.631,184.120 396.972 C 184.789 397.479,184.771 397.514,183.859 397.459 C 183.319 397.427,182.948 397.284,183.036 397.142 C 183.124 397.000,182.915 396.776,182.572 396.645 C 182.230 396.513,182.054 396.237,182.181 396.030 C 182.309 395.824,182.230 395.542,182.007 395.404 C 181.003 394.784,181.663 397.548,182.803 398.741 L 184.007 400.000 200.000 400.000 L 215.993 400.000 217.197 398.741 L 218.400 397.481 218.400 364.141 C 218.400 345.803,218.337 330.800,218.260 330.800 C 218.183 330.800,218.023 338.072,217.906 346.959 M102.469 373.900 C 116.917 373.958,140.677 373.958,155.269 373.900 C 169.861 373.842,158.040 373.794,129.000 373.794 C 99.960 373.794,88.021 373.842,102.469 373.900 M181.670 392.657 C 181.617 394.220,181.754 394.774,182.242 394.961 C 182.608 395.101,182.785 395.463,182.654 395.803 C 182.528 396.132,182.602 396.400,182.819 396.400 C 183.035 396.400,183.172 395.860,183.121 395.200 C 183.071 394.540,182.808 394.000,182.538 394.000 C 182.250 394.000,181.983 393.295,181.893 392.300 C 181.743 390.640,181.738 390.648,181.670 392.657 "
       stroke="none"
       fill="#29cfba"
       fill-rule="evenodd" />
    <path
       id="path4"
       d="M184.000 0.517 C 181.768 1.644,181.565 2.940,181.688 15.319 L 181.800 26.600 149.800 26.505 C 132.200 26.453,112.040 26.560,105.000 26.742 L 92.200 27.073 101.400 27.168 C 106.460 27.220,110.345 27.364,110.033 27.487 C 109.721 27.611,107.359 29.829,104.783 32.417 C 102.208 35.005,99.764 37.209,99.351 37.315 C 98.938 37.420,102.020 37.569,106.200 37.644 L 113.800 37.781 102.800 37.990 C 92.203 38.192,92.598 38.212,113.600 38.527 C 125.590 38.707,145.840 38.797,158.600 38.727 L 181.800 38.600 181.747 45.000 C 181.709 49.508,181.777 50.607,181.977 48.718 C 182.227 46.360,182.418 45.900,183.556 44.918 C 184.269 44.303,186.548 42.135,188.621 40.100 C 190.694 38.065,192.477 36.400,192.584 36.400 C 192.690 36.400,192.833 38.875,192.901 41.900 C 192.969 44.925,193.064 39.255,193.112 29.300 L 193.200 11.200 200.000 11.200 L 206.800 11.200 206.853 12.700 C 206.881 13.525,207.028 18.340,207.179 23.400 C 207.419 31.468,207.462 31.897,207.526 26.889 L 207.600 21.177 208.900 19.782 C 209.615 19.015,211.865 16.683,213.900 14.599 L 217.600 10.810 217.687 8.505 C 217.736 7.237,217.882 9.800,218.013 14.200 L 218.250 22.200 218.259 12.522 C 218.265 5.781,218.136 2.868,217.834 2.922 C 217.595 2.965,217.393 2.730,217.385 2.400 C 217.364 1.535,216.432 0.021,216.400 0.800 C 216.381 1.275,216.291 1.254,215.968 0.700 C 215.439 -0.208,185.772 -0.378,184.000 0.517 M121.600 51.600 C 121.600 51.859,115.377 52.030,103.900 52.085 C 92.145 52.141,88.349 52.247,92.600 52.400 L 99.000 52.631 91.692 52.715 L 84.384 52.800 79.992 57.208 C 75.133 62.085,75.193 62.000,76.600 62.000 C 77.150 62.000,77.600 62.170,77.600 62.378 C 77.600 63.065,87.730 63.239,133.400 63.336 C 158.260 63.389,175.270 63.329,171.200 63.203 L 163.800 62.973 170.400 62.880 C 174.030 62.829,177.270 62.613,177.600 62.400 C 178.003 62.140,176.328 62.010,172.500 62.006 C 166.725 62.000,166.112 61.846,167.663 60.788 C 168.138 60.465,170.205 58.535,172.258 56.500 L 175.990 52.800 178.895 52.722 L 181.800 52.643 179.050 52.502 C 176.575 52.375,176.375 52.304,177.050 51.793 C 177.700 51.301,174.058 51.224,149.700 51.213 C 131.225 51.204,121.600 51.337,121.600 51.600 M35.600 100.601 C 35.600 102.121,25.327 112.362,25.081 111.088 C 24.986 110.600,24.920 133.690,24.933 162.400 C 24.946 191.110,25.057 212.073,25.178 208.985 C 25.432 202.570,24.766 203.871,31.105 197.389 C 36.072 192.310,35.952 192.255,36.101 199.700 L 36.222 205.800 36.311 199.511 L 36.400 193.223 41.900 193.099 L 47.400 192.975 41.900 192.888 C 38.875 192.839,36.400 192.708,36.400 192.595 C 36.400 192.482,38.065 190.694,40.100 188.621 C 42.135 186.548,44.315 184.255,44.945 183.526 L 46.089 182.200 51.945 181.975 C 56.931 181.783,56.213 181.738,47.100 181.675 L 36.400 181.600 36.400 161.184 L 36.400 140.769 45.344 140.823 C 54.226 140.877,57.419 140.407,57.237 139.072 C 57.132 138.303,57.232 137.973,57.517 138.149 C 57.912 138.393,58.118 137.175,58.103 134.671 C 58.092 132.689,56.270 129.661,55.234 129.900 C 54.995 129.955,54.800 129.820,54.800 129.600 C 54.800 129.345,51.467 129.200,45.600 129.200 L 36.400 129.200 36.400 122.600 L 36.400 116.000 71.300 115.947 C 106.811 115.892,130.795 115.517,119.600 115.191 L 114.200 115.034 120.000 114.800 L 125.800 114.566 120.100 114.483 C 113.659 114.389,113.735 114.441,116.436 112.000 C 117.532 111.010,119.589 109.075,121.007 107.700 C 122.425 106.325,123.839 105.200,124.150 105.200 C 124.460 105.200,124.816 104.935,124.940 104.612 C 125.138 104.095,119.751 104.054,80.783 104.277 C 42.677 104.495,36.399 104.451,36.394 103.966 C 36.389 103.530,36.314 103.515,36.068 103.904 C 35.892 104.180,35.827 103.325,35.922 102.004 C 36.018 100.682,35.985 99.600,35.848 99.600 C 35.712 99.600,35.600 100.050,35.600 100.601 M10.648 120.169 L 10.297 126.938 5.148 132.066 L -0.000 137.195 0.000 182.813 C 0.000 224.172,0.058 228.383,0.626 227.916 C 0.971 227.632,3.295 225.389,5.791 222.931 C 8.287 220.473,10.414 218.548,10.518 218.652 C 10.994 219.127,11.238 193.519,11.124 155.200 C 11.034 124.940,10.903 115.269,10.648 120.169 M78.800 129.170 C 78.800 129.432,78.610 129.530,78.377 129.386 C 76.323 128.116,73.172 131.714,73.245 135.246 C 73.276 136.761,73.458 138.000,73.651 138.000 C 73.843 138.000,74.000 138.300,74.000 138.667 C 74.000 139.033,74.119 139.214,74.264 139.069 C 74.409 138.924,74.775 139.157,75.076 139.587 C 75.849 140.691,78.018 141.183,80.583 140.835 C 81.931 140.652,82.932 140.692,83.179 140.939 C 83.448 141.208,83.871 141.087,84.458 140.571 C 85.282 139.847,85.319 139.845,85.068 140.533 C 84.886 141.030,84.961 141.208,85.300 141.083 C 85.575 140.983,85.740 140.653,85.667 140.350 C 85.593 140.048,85.667 139.933,85.830 140.097 C 86.245 140.512,87.248 139.601,86.934 139.093 C 86.792 138.864,86.860 138.790,87.085 138.929 C 87.309 139.068,87.832 138.794,88.247 138.322 C 88.661 137.849,88.775 137.594,88.500 137.755 C 87.716 138.213,87.914 137.544,88.859 136.538 C 89.608 135.740,89.646 135.536,89.159 134.935 C 88.791 134.482,88.771 134.349,89.100 134.547 C 89.375 134.712,89.600 134.669,89.600 134.452 C 89.600 134.235,89.375 133.815,89.100 133.519 C 88.825 133.223,88.540 132.716,88.467 132.392 C 88.259 131.467,87.550 130.784,87.093 131.066 C 86.864 131.208,86.792 131.136,86.934 130.907 C 87.259 130.381,86.204 129.485,85.067 129.323 C 81.378 128.795,78.800 128.733,78.800 129.170 "
       stroke="none"
       fill="#54b2ec"
       fill-rule="evenodd" />
  </g>
  <rect
     style="fill:#54b2ec;fill-opacity:1;fill-rule:evenodd"
     id="rect1085"
     width="75.982803"
     height="12.162162"
     x="36.179359"
     y="129.05405" />
  <rect
     style="fill:#41bed7;fill-opacity:1;fill-rule:evenodd"
     id="rect1286"
     width="11.302212"
     height="45.39312"
     x="389.06635"
     y="92.076164" />
  <rect
     style="fill:#41bed7;fill-opacity:1;fill-rule:evenodd"
     id="rect1288"
     width="4.4840293"
     height="14.312039"
     x="395.88452"
     y="79.484032" />
  <rect
     style="fill:#41bed7;fill-opacity:1;fill-rule:evenodd"
     id="rect1382"
     width="3.3169534"
     height="3.8697789"
     x="-0.12285012"
     y="-0.18427518" />
  <rect
     style="fill:#41bed7;fill-opacity:1;fill-rule:evenodd"
     id="rect1384"
     width="2.4105914"
     height="2.4540253"
     x="-0.10858519"
     y="397.66071" />
  <rect
     style="fill:#41bed7;fill-opacity:1;fill-rule:evenodd"
     id="rect1540"
     width="2.54914"
     height="2.3034399"
     x="397.63513"
     y="-0.03071253" />
  <rect
     style="fill:#41bed7;fill-opacity:1;fill-rule:evenodd"
     id="rect1544"
     width="1.6070609"
     height="15.527682"
     x="398.39908"
     y="166.09192" />
  <rect
     style="fill:#41bed7;fill-opacity:1;fill-rule:evenodd"
     id="rect1882"
     width="1.6070609"
     height="15.527682"
     x="398.39908"
     y="166.09192" />
  <rect
     style="fill:#29cfba;fill-opacity:1;fill-rule:evenodd"
     id="rect1884"
     width="0.58636004"
     height="13.030223"
     x="399.4415"
     y="181.6196" />
  <rect
     style="fill:#29cfba;fill-opacity:1;fill-rule:evenodd"
     id="rect1886"
     width="1.0858519"
     height="20.76149"
     x="398.98544"
     y="194.06346" />
  <rect
     style="fill:#29cfba;fill-opacity:1;fill-rule:evenodd"
     id="rect1888"
     width="1.2595882"
     height="9.0777225"
     x="389.2562"
     y="187.07057" />
  <rect
     style="fill:#41bed7;fill-opacity:1;fill-rule:evenodd"
     id="rect1959"
     width="1.1727201"
     height="4.2131057"
     x="389.29965"
     y="182.85747" />
  <rect
     style="fill:#29cfba;fill-opacity:1;fill-rule:evenodd"
     id="rect1961"
     width="3.2575557"
     height="2.9100833"
     x="396.9006"
     y="397.20465" />
</svg>
