<svg id="svg" version="1.1" xmlns="http://www.w3.org/2000/svg" xmlns:xlink="http://www.w3.org/1999/xlink" width="400" height="400" viewBox="0, 0, 400,400"><g id="svgg"><path id="path0" d="M181.000 12.869 C 178.360 13.064,175.840 13.379,175.400 13.569 C 174.960 13.759,172.080 14.220,169.000 14.593 C 165.920 14.966,163.220 15.407,163.000 15.573 C 162.780 15.739,161.025 16.102,159.100 16.379 C 157.175 16.656,155.600 17.020,155.600 17.187 C 155.600 17.354,154.250 17.708,152.600 17.974 C 150.950 18.240,149.600 18.596,149.600 18.765 C 149.600 18.934,148.340 19.309,146.800 19.600 C 145.260 19.891,144.000 20.290,144.000 20.488 C 144.000 20.685,143.812 20.731,143.582 20.589 C 143.353 20.447,142.948 20.503,142.682 20.713 C 142.417 20.923,141.254 21.317,140.099 21.588 C 138.943 21.859,137.909 22.224,137.800 22.400 C 137.691 22.576,136.702 22.936,135.601 23.200 C 134.501 23.464,133.600 23.819,133.600 23.990 C 133.600 24.160,133.105 24.399,132.500 24.521 C 131.895 24.642,130.860 24.964,130.200 25.235 C 129.540 25.507,128.865 25.700,128.700 25.665 C 128.535 25.629,128.400 25.741,128.400 25.913 C 128.400 26.085,127.590 26.465,126.600 26.757 C 125.610 27.049,124.800 27.411,124.800 27.561 C 124.800 27.711,123.990 28.051,123.000 28.316 C 122.010 28.580,121.200 28.978,121.200 29.198 C 121.200 29.419,120.995 29.600,120.745 29.600 C 120.241 29.600,111.117 33.999,110.800 34.395 C 110.690 34.533,110.015 34.882,109.300 35.171 C 108.585 35.460,108.000 35.831,108.000 35.994 C 108.000 36.158,107.190 36.601,106.200 36.979 C 105.210 37.357,104.400 37.831,104.400 38.033 C 104.400 38.235,104.175 38.403,103.900 38.407 C 103.480 38.413,100.824 39.998,99.400 41.093 C 99.180 41.262,98.325 41.756,97.500 42.191 C 96.675 42.626,96.000 43.099,96.000 43.242 C 96.000 43.386,95.460 43.727,94.800 44.000 C 94.140 44.273,93.600 44.660,93.600 44.858 C 93.600 45.057,93.150 45.391,92.600 45.600 C 92.050 45.809,91.600 46.165,91.600 46.390 C 91.600 46.616,91.364 46.800,91.075 46.800 C 90.787 46.800,90.202 47.116,89.775 47.503 C 89.349 47.890,88.493 48.532,87.874 48.930 C 87.254 49.328,86.444 49.903,86.074 50.208 C 85.703 50.513,84.312 51.626,82.983 52.681 C 81.653 53.737,80.246 54.870,79.854 55.200 C 79.071 55.860,78.909 56.000,75.181 59.247 C 71.852 62.145,62.145 71.852,59.247 75.181 C 56.000 78.909,55.860 79.071,55.200 79.854 C 54.870 80.246,53.737 81.653,52.681 82.983 C 51.626 84.312,50.513 85.703,50.208 86.074 C 49.903 86.444,49.328 87.254,48.930 87.874 C 48.532 88.493,47.890 89.349,47.503 89.775 C 47.116 90.202,46.800 90.787,46.800 91.075 C 46.800 91.364,46.616 91.600,46.390 91.600 C 46.165 91.600,45.809 92.050,45.600 92.600 C 45.391 93.150,45.057 93.600,44.858 93.600 C 44.660 93.600,44.273 94.140,44.000 94.800 C 43.727 95.460,43.386 96.000,43.242 96.000 C 43.099 96.000,42.626 96.675,42.191 97.500 C 41.756 98.325,41.262 99.180,41.093 99.400 C 39.998 100.824,38.413 103.480,38.407 103.900 C 38.403 104.175,38.235 104.400,38.033 104.400 C 37.831 104.400,37.357 105.210,36.979 106.200 C 36.601 107.190,36.147 108.000,35.972 108.000 C 35.796 108.000,35.424 108.630,35.146 109.400 C 34.867 110.170,34.509 110.800,34.351 110.800 C 34.192 110.800,33.842 111.475,33.573 112.300 C 33.304 113.125,32.950 113.890,32.787 114.000 C 32.412 114.252,31.055 117.297,31.138 117.700 C 31.172 117.865,31.056 118.000,30.880 118.000 C 30.705 118.000,30.319 118.668,30.024 119.485 C 29.728 120.302,29.249 121.208,28.959 121.498 C 28.669 121.788,28.314 122.650,28.171 123.413 C 28.028 124.176,27.771 124.800,27.600 124.800 C 27.428 124.800,27.049 125.610,26.757 126.600 C 26.465 127.590,26.085 128.400,25.913 128.400 C 25.741 128.400,25.629 128.535,25.665 128.700 C 25.700 128.865,25.507 129.540,25.235 130.200 C 24.964 130.860,24.642 131.895,24.521 132.500 C 24.399 133.105,24.160 133.600,23.990 133.600 C 23.819 133.600,23.464 134.501,23.200 135.601 C 22.936 136.702,22.576 137.691,22.400 137.800 C 22.224 137.909,21.859 138.943,21.588 140.099 C 21.317 141.254,20.923 142.417,20.713 142.682 C 20.503 142.948,20.438 143.337,20.568 143.548 C 20.698 143.759,20.643 143.992,20.444 144.066 C 20.246 144.140,19.976 144.830,19.843 145.600 C 19.277 148.898,19.091 149.600,18.784 149.600 C 18.605 149.600,18.240 150.950,17.974 152.600 C 17.708 154.250,17.350 155.600,17.178 155.600 C 17.006 155.600,16.637 157.220,16.357 159.200 C 16.076 161.180,15.729 162.800,15.584 162.800 C 15.439 162.800,15.006 165.455,14.622 168.700 C 14.238 171.945,13.771 174.960,13.584 175.400 C 12.933 176.937,12.400 188.011,12.400 200.000 C 12.400 211.989,12.933 223.063,13.584 224.600 C 13.771 225.040,14.238 228.055,14.622 231.300 C 15.006 234.545,15.439 237.200,15.584 237.200 C 15.729 237.200,16.076 238.820,16.357 240.800 C 16.637 242.780,17.006 244.400,17.176 244.400 C 17.347 244.400,17.718 245.750,18.000 247.400 C 18.282 249.050,18.639 250.400,18.792 250.400 C 18.946 250.400,19.309 251.660,19.600 253.200 C 19.891 254.740,20.290 256.000,20.488 256.000 C 20.685 256.000,20.731 256.188,20.589 256.418 C 20.447 256.647,20.506 257.052,20.719 257.318 C 20.933 257.583,21.239 258.430,21.399 259.200 C 21.559 259.970,22.035 261.365,22.455 262.300 C 22.876 263.235,23.328 264.540,23.460 265.200 C 23.592 265.860,23.835 266.400,24.000 266.400 C 24.165 266.400,24.399 266.895,24.521 267.500 C 24.642 268.105,24.964 269.140,25.235 269.800 C 25.507 270.460,25.700 271.135,25.665 271.300 C 25.629 271.465,25.741 271.600,25.913 271.600 C 26.085 271.600,26.465 272.410,26.757 273.400 C 27.049 274.390,27.428 275.200,27.600 275.200 C 27.771 275.200,28.028 275.824,28.171 276.587 C 28.314 277.350,28.669 278.212,28.959 278.502 C 29.249 278.792,29.728 279.698,30.024 280.515 C 30.319 281.332,30.705 282.000,30.880 282.000 C 31.056 282.000,31.176 282.135,31.146 282.300 C 31.053 282.811,32.504 286.000,32.829 286.000 C 32.998 286.000,33.255 286.542,33.401 287.204 C 33.546 287.866,33.876 288.631,34.133 288.904 C 34.390 289.177,34.960 290.105,35.400 290.967 C 37.352 294.789,37.710 295.408,38.045 295.533 C 38.240 295.607,38.400 295.922,38.400 296.233 C 38.400 296.545,38.723 297.123,39.117 297.517 C 39.512 297.912,40.073 298.812,40.366 299.517 C 40.658 300.223,41.010 300.802,41.149 300.805 C 41.287 300.807,41.744 301.527,42.164 302.405 C 42.585 303.282,43.051 304.000,43.200 304.000 C 43.349 304.000,43.680 304.457,43.934 305.015 C 44.399 306.036,44.809 306.606,46.100 308.029 C 46.485 308.453,46.800 308.946,46.800 309.125 C 46.800 309.303,47.116 309.798,47.503 310.225 C 47.890 310.651,48.532 311.507,48.930 312.126 C 49.328 312.746,49.903 313.556,50.208 313.926 C 50.513 314.297,51.626 315.688,52.681 317.017 C 53.737 318.347,54.870 319.754,55.200 320.146 C 55.860 320.929,56.000 321.091,59.247 324.819 C 62.145 328.148,71.852 337.855,75.181 340.753 C 78.909 344.000,79.071 344.140,79.854 344.800 C 80.246 345.130,81.653 346.263,82.983 347.319 C 84.312 348.374,85.670 349.454,86.000 349.720 C 88.002 351.329,90.772 353.200,91.154 353.200 C 91.399 353.200,91.600 353.384,91.600 353.610 C 91.600 353.835,92.050 354.191,92.600 354.400 C 93.150 354.609,93.600 354.943,93.600 355.142 C 93.600 355.340,94.140 355.727,94.800 356.000 C 95.460 356.273,96.000 356.626,96.000 356.784 C 96.000 356.942,96.718 357.415,97.595 357.836 C 98.473 358.256,99.193 358.713,99.195 358.851 C 99.198 358.990,99.777 359.342,100.483 359.634 C 101.188 359.927,102.088 360.488,102.483 360.883 C 102.877 361.277,103.470 361.600,103.800 361.600 C 104.130 361.600,104.400 361.768,104.400 361.974 C 104.400 362.180,105.030 362.576,105.800 362.854 C 106.570 363.133,107.200 363.487,107.200 363.641 C 107.200 363.795,108.009 364.254,108.999 364.660 C 109.988 365.067,110.798 365.521,110.799 365.669 C 110.799 365.817,111.475 366.158,112.300 366.427 C 113.125 366.696,113.890 367.040,114.000 367.192 C 114.278 367.574,120.239 370.400,120.769 370.400 C 121.006 370.400,121.200 370.581,121.200 370.802 C 121.200 371.022,122.010 371.420,123.000 371.684 C 123.990 371.949,124.800 372.289,124.800 372.439 C 124.800 372.589,125.610 372.951,126.600 373.243 C 127.590 373.535,128.400 373.886,128.400 374.023 C 128.400 374.160,129.570 374.606,131.000 375.015 C 132.430 375.424,133.600 375.885,133.600 376.039 C 133.600 376.194,134.501 376.536,135.601 376.800 C 136.702 377.064,137.691 377.424,137.800 377.600 C 137.909 377.776,138.943 378.141,140.099 378.412 C 141.254 378.683,142.380 379.039,142.600 379.204 C 142.820 379.368,144.440 379.832,146.200 380.235 C 147.960 380.638,149.490 381.087,149.600 381.233 C 149.710 381.379,151.105 381.730,152.700 382.013 C 154.295 382.297,155.600 382.650,155.600 382.800 C 155.600 382.949,157.175 383.308,159.100 383.598 C 161.025 383.888,162.780 384.261,163.000 384.427 C 163.220 384.593,165.920 385.034,169.000 385.407 C 172.080 385.780,174.960 386.237,175.400 386.423 C 178.973 387.935,221.037 387.929,224.600 386.416 C 225.040 386.230,228.055 385.762,231.300 385.378 C 234.545 384.994,237.200 384.561,237.200 384.417 C 237.200 384.273,238.820 383.915,240.800 383.622 C 242.780 383.329,244.400 382.959,244.400 382.801 C 244.400 382.643,245.750 382.282,247.400 382.000 C 249.050 381.718,250.400 381.365,250.400 381.217 C 250.400 381.068,251.615 380.712,253.100 380.426 C 254.585 380.140,256.340 379.667,257.000 379.376 C 257.660 379.085,259.010 378.639,260.000 378.384 C 260.990 378.130,261.980 377.778,262.200 377.602 C 262.420 377.426,263.410 377.048,264.400 376.761 C 265.390 376.474,266.290 376.132,266.400 376.000 C 266.510 375.869,267.725 375.427,269.100 375.017 C 270.475 374.608,271.600 374.161,271.600 374.024 C 271.600 373.887,272.410 373.535,273.400 373.243 C 274.390 372.951,275.200 372.589,275.200 372.439 C 275.200 372.289,276.010 371.949,277.000 371.684 C 277.990 371.420,278.800 371.022,278.800 370.802 C 278.800 370.581,278.994 370.400,279.231 370.400 C 279.761 370.400,285.722 367.574,286.000 367.192 C 286.110 367.040,286.875 366.696,287.700 366.427 C 288.525 366.158,289.201 365.817,289.201 365.669 C 289.202 365.521,290.012 365.067,291.001 364.660 C 291.991 364.254,292.800 363.795,292.800 363.641 C 292.800 363.487,293.430 363.133,294.200 362.854 C 294.970 362.576,295.600 362.180,295.600 361.974 C 295.600 361.768,295.870 361.600,296.200 361.600 C 296.530 361.600,297.123 361.277,297.517 360.883 C 297.912 360.488,298.812 359.927,299.517 359.634 C 300.223 359.342,300.802 358.990,300.805 358.851 C 300.807 358.713,301.527 358.256,302.405 357.836 C 303.282 357.415,304.000 356.949,304.000 356.800 C 304.000 356.651,304.457 356.320,305.015 356.066 C 306.036 355.601,306.606 355.191,308.029 353.900 C 308.453 353.515,308.911 353.200,309.046 353.200 C 309.268 353.200,312.468 350.951,314.000 349.720 C 314.330 349.454,315.688 348.374,317.017 347.319 C 318.347 346.263,319.754 345.130,320.146 344.800 C 320.930 344.139,321.076 344.012,324.882 340.699 C 328.269 337.750,337.767 328.251,340.722 324.856 C 343.428 321.747,344.200 320.866,345.153 319.800 C 345.546 319.360,346.752 317.830,347.834 316.400 C 348.915 314.970,349.896 313.710,350.013 313.600 C 350.482 313.160,353.200 309.277,353.200 309.046 C 353.200 308.911,353.515 308.453,353.900 308.029 C 355.191 306.606,355.601 306.036,356.066 305.015 C 356.320 304.457,356.651 304.000,356.800 304.000 C 356.949 304.000,357.415 303.282,357.836 302.405 C 358.256 301.527,358.713 300.807,358.851 300.805 C 358.990 300.802,359.342 300.223,359.634 299.517 C 359.927 298.812,360.488 297.912,360.883 297.517 C 361.277 297.123,361.600 296.530,361.600 296.200 C 361.600 295.870,361.768 295.600,361.974 295.600 C 362.180 295.600,362.576 294.970,362.854 294.200 C 363.133 293.430,363.487 292.800,363.641 292.800 C 363.795 292.800,364.254 291.991,364.660 291.001 C 365.067 290.012,365.521 289.202,365.669 289.201 C 365.817 289.201,366.158 288.525,366.427 287.700 C 366.696 286.875,367.040 286.110,367.192 286.000 C 367.574 285.722,370.400 279.761,370.400 279.231 C 370.400 278.994,370.581 278.800,370.802 278.800 C 371.022 278.800,371.420 277.990,371.684 277.000 C 371.949 276.010,372.289 275.200,372.439 275.200 C 372.589 275.200,372.951 274.390,373.243 273.400 C 373.535 272.410,373.887 271.600,374.024 271.600 C 374.161 271.600,374.608 270.475,375.017 269.100 C 375.427 267.725,375.869 266.510,376.000 266.400 C 376.132 266.290,376.474 265.390,376.761 264.400 C 377.048 263.410,377.426 262.420,377.602 262.200 C 377.778 261.980,378.130 260.990,378.384 260.000 C 378.639 259.010,379.085 257.660,379.376 257.000 C 379.667 256.340,380.140 254.585,380.426 253.100 C 380.712 251.615,381.068 250.400,381.217 250.400 C 381.365 250.400,381.718 249.050,382.000 247.400 C 382.282 245.750,382.643 244.400,382.801 244.400 C 382.959 244.400,383.329 242.780,383.622 240.800 C 383.915 238.820,384.273 237.200,384.417 237.200 C 384.561 237.200,384.994 234.545,385.378 231.300 C 385.762 228.055,386.230 225.040,386.416 224.600 C 387.932 221.030,387.934 178.938,386.419 175.400 C 386.231 174.960,385.762 171.945,385.378 168.700 C 384.994 165.455,384.561 162.800,384.417 162.800 C 384.273 162.800,383.915 161.180,383.622 159.200 C 383.329 157.220,382.958 155.600,382.799 155.600 C 382.640 155.600,382.292 154.250,382.026 152.600 C 381.760 150.950,381.408 149.600,381.244 149.600 C 381.081 149.600,380.712 148.385,380.426 146.900 C 380.140 145.415,379.667 143.660,379.376 143.000 C 379.085 142.340,378.639 140.990,378.384 140.000 C 378.130 139.010,377.777 138.020,377.600 137.800 C 377.423 137.580,377.062 136.590,376.798 135.600 C 376.533 134.610,376.192 133.710,376.039 133.600 C 375.887 133.490,375.427 132.275,375.017 130.900 C 374.608 129.525,374.161 128.400,374.024 128.400 C 373.887 128.400,373.535 127.590,373.243 126.600 C 372.951 125.610,372.589 124.800,372.439 124.800 C 372.289 124.800,371.949 123.990,371.684 123.000 C 371.420 122.010,371.022 121.200,370.802 121.200 C 370.581 121.200,370.400 121.006,370.400 120.769 C 370.400 120.239,367.574 114.278,367.192 114.000 C 367.040 113.890,366.696 113.125,366.427 112.300 C 366.158 111.475,365.817 110.799,365.669 110.799 C 365.521 110.798,365.067 109.988,364.660 108.999 C 364.254 108.009,363.795 107.200,363.641 107.200 C 363.487 107.200,363.133 106.570,362.854 105.800 C 362.576 105.030,362.180 104.400,361.974 104.400 C 361.768 104.400,361.597 104.175,361.593 103.900 C 361.587 103.480,360.002 100.824,358.907 99.400 C 358.738 99.180,358.244 98.325,357.809 97.500 C 357.374 96.675,356.901 96.000,356.758 96.000 C 356.614 96.000,356.273 95.460,356.000 94.800 C 355.727 94.140,355.340 93.600,355.142 93.600 C 354.943 93.600,354.609 93.150,354.400 92.600 C 354.191 92.050,353.835 91.600,353.610 91.600 C 353.384 91.600,353.200 91.399,353.200 91.154 C 353.200 90.772,351.329 88.002,349.720 86.000 C 349.454 85.670,348.374 84.312,347.319 82.983 C 346.263 81.653,345.130 80.246,344.800 79.854 C 344.141 79.073,344.020 78.933,340.722 75.144 C 337.767 71.749,328.269 62.250,324.882 59.301 C 321.742 56.567,320.866 55.800,319.800 54.847 C 319.360 54.454,317.834 53.248,316.408 52.166 C 314.983 51.085,313.464 49.885,313.033 49.500 C 312.602 49.115,312.131 48.800,311.987 48.800 C 311.842 48.800,311.201 48.350,310.562 47.800 C 309.923 47.251,309.265 46.801,309.100 46.800 C 308.935 46.800,308.453 46.485,308.029 46.100 C 306.606 44.809,306.036 44.399,305.015 43.934 C 304.457 43.680,304.000 43.361,304.000 43.227 C 304.000 43.092,303.325 42.626,302.500 42.191 C 301.675 41.756,300.820 41.262,300.600 41.093 C 299.222 40.034,296.527 38.413,296.133 38.407 C 295.877 38.403,295.607 38.240,295.533 38.045 C 295.408 37.710,294.789 37.352,290.967 35.400 C 290.105 34.960,289.177 34.390,288.904 34.133 C 288.631 33.876,287.866 33.546,287.204 33.401 C 286.542 33.255,286.000 32.998,286.000 32.829 C 286.000 32.504,282.811 31.053,282.300 31.146 C 282.135 31.176,282.000 31.056,282.000 30.880 C 282.000 30.705,281.332 30.319,280.515 30.024 C 279.698 29.728,278.792 29.249,278.502 28.959 C 278.212 28.669,277.350 28.314,276.587 28.171 C 275.824 28.028,275.200 27.771,275.200 27.600 C 275.200 27.428,274.390 27.049,273.400 26.757 C 272.410 26.465,271.600 26.085,271.600 25.913 C 271.600 25.741,271.465 25.629,271.300 25.665 C 271.135 25.700,270.460 25.507,269.800 25.235 C 269.140 24.964,268.105 24.642,267.500 24.521 C 266.895 24.399,266.400 24.160,266.400 23.990 C 266.400 23.819,265.499 23.464,264.399 23.200 C 263.298 22.936,262.309 22.576,262.200 22.400 C 262.091 22.224,261.057 21.859,259.901 21.588 C 258.746 21.317,257.583 20.923,257.318 20.713 C 257.052 20.503,256.647 20.447,256.418 20.589 C 256.188 20.731,256.000 20.685,256.000 20.488 C 256.000 20.290,254.740 19.891,253.200 19.600 C 251.660 19.309,250.400 18.934,250.400 18.765 C 250.400 18.596,249.050 18.240,247.400 17.974 C 245.750 17.708,244.400 17.350,244.400 17.178 C 244.400 17.006,242.780 16.637,240.800 16.357 C 238.820 16.076,237.200 15.729,237.200 15.584 C 237.200 15.439,234.545 15.006,231.300 14.622 C 228.055 14.238,225.040 13.771,224.600 13.584 C 222.070 12.512,192.427 12.026,181.000 12.869 M289.939 90.885 C 290.963 92.032,295.602 96.847,300.249 101.585 C 323.998 125.801,329.640 131.663,329.925 132.418 C 329.993 132.600,328.580 134.245,326.783 136.074 C 324.987 137.903,322.861 140.210,322.058 141.200 C 321.256 142.190,320.308 143.219,319.951 143.487 C 319.152 144.086,310.869 152.417,306.840 156.673 C 305.212 158.393,300.082 163.690,295.440 168.445 C 290.798 173.200,283.130 181.088,278.400 185.974 C 273.670 190.860,266.740 197.972,263.000 201.778 C 259.260 205.584,254.130 210.896,251.600 213.581 C 249.070 216.267,244.210 221.294,240.800 224.754 C 237.390 228.213,230.190 235.592,224.800 241.153 C 219.410 246.713,211.850 254.465,208.000 258.380 C 199.960 266.556,197.858 268.800,198.238 268.800 C 198.386 268.800,198.021 269.183,197.425 269.651 C 196.356 270.493,193.383 273.438,191.765 275.260 C 191.305 275.777,190.495 276.582,189.965 277.049 C 189.434 277.515,187.222 279.765,185.050 282.049 C 182.877 284.332,177.387 290.000,172.850 294.643 C 168.312 299.287,162.744 305.015,160.475 307.372 C 155.851 312.175,156.355 312.073,153.415 308.804 C 152.061 307.298,148.452 303.571,138.842 293.752 C 138.095 292.989,137.195 292.147,136.842 291.882 C 136.489 291.617,135.546 290.590,134.746 289.600 C 133.946 288.610,129.806 284.254,125.546 279.919 C 121.286 275.584,113.570 267.685,108.400 262.365 C 90.902 244.359,85.003 238.328,84.043 237.462 C 83.516 236.988,82.886 236.368,82.643 236.085 C 80.907 234.068,76.026 228.907,73.092 225.986 L 69.584 222.494 83.789 208.147 C 91.602 200.256,97.995 193.575,97.997 193.300 C 97.999 193.025,98.189 192.800,98.419 192.800 C 98.650 192.800,99.288 192.305,99.838 191.700 C 101.128 190.281,109.934 181.357,111.551 179.830 L 112.790 178.660 114.844 180.830 C 118.905 185.122,135.156 201.856,142.800 209.617 C 147.090 213.972,151.745 218.811,153.144 220.368 C 156.325 223.910,156.125 223.934,160.309 219.506 C 162.229 217.474,165.060 214.515,166.600 212.929 C 172.270 207.093,181.531 197.578,189.557 189.343 C 194.091 184.691,202.210 176.337,207.600 170.778 C 212.990 165.220,219.020 159.006,221.000 156.970 C 222.980 154.934,226.832 150.958,229.561 148.134 C 232.289 145.310,238.229 139.196,242.761 134.546 C 247.292 129.896,255.230 121.734,260.400 116.408 C 265.570 111.083,272.500 103.967,275.800 100.596 C 279.100 97.225,283.037 93.192,284.549 91.633 C 287.834 88.249,287.613 88.279,289.939 90.885 " stroke="none" fill="#44a444" fill-rule="evenodd"></path><path id="path1" d="" stroke="none" fill="#48a444" fill-rule="evenodd"></path><path id="path2" d="" stroke="none" fill="#48a444" fill-rule="evenodd"></path><path id="path3" d="" stroke="none" fill="#48a444" fill-rule="evenodd"></path><path id="path4" d="" stroke="none" fill="#48a444" fill-rule="evenodd"></path></g></svg>